<svg xmlns="http://www.w3.org/2000/svg" width="1132" height="804" xmlns:ev="http://www.w3.org/2001/xml-events" viewBox="0 0 1132 804" xmlns:xlink="http://www.w3.org/1999/xlink"><style type="text/css"><![CDATA[
.st3 {fill:#18272e;font-family:Arial;font-size:10pt}
.st1 {fill:#ffffff;font-family:Arial;font-size:10pt}
.st2 {fill:#ffffff;font-family:Arial;font-size:20pt}
]]></style><defs/><g id="page1" transform="translate(5,5)"><rect fill="#f4f8fc" width="1123" height="794" y="0" x="0" stroke="#808080"/><g id="shape1" transform="translate(639,420)"><path fill="#3fb59e" d="M0,31.9C-0.1,20.5,11.7,9.9,30.9,4.2C50.1,-1.5,73.7,-1.5,92.9,4.2C112.1,9.9,123.9,20.5,123.8,31.9C123.8,49.5,96.1,63.8,61.9,63.8C27.7,63.8,0,49.5,0,31.9z" stroke="#3fb59e"/><text class="st1"><tspan y="27.9" x="17.5">Checking exam </tspan><tspan y="42.9" x="46.5">result</tspan></text></g><g id="shape2" transform="translate(639,271)"><path fill="#3fb59e" d="M0,31.9C-0.1,20.5,11.7,9.9,30.9,4.2C50.1,-1.5,73.7,-1.5,92.9,4.2C112.1,9.9,123.9,20.5,123.8,31.9C123.8,49.5,96.1,63.8,61.9,63.8C27.7,63.8,0,49.5,0,31.9z" stroke="#3fb59e"/><text class="st1"><tspan y="35.4" x="14.5">Send filled exam</tspan></text></g><g id="shape3" transform="translate(639,97.1)"><path fill="#3fb59e" d="M0,31.9C-0.1,20.5,11.7,9.9,30.9,4.2C50.1,-1.5,73.7,-1.5,92.9,4.2C112.1,9.9,123.9,20.5,123.8,31.9C123.8,49.5,96.1,63.8,61.9,63.8C27.7,63.8,0,49.5,0,31.9z" stroke="#3fb59e"/><text class="st1"><tspan y="35.4" x="13.5">Get list of exams</tspan></text></g><g id="shape4" transform="translate(363,420)"><path fill="#3fb59e" d="M0,31.9C-0.1,20.5,11.7,9.9,30.9,4.2C50.1,-1.5,73.7,-1.5,92.9,4.2C112.1,9.9,123.9,20.5,123.8,31.9C123.8,49.5,96.1,63.8,61.9,63.8C27.7,63.8,0,49.5,0,31.9z" stroke="#3fb59e"/><text class="st1"><tspan y="35.4" x="12.5">Adding questions</tspan></text></g><g id="shape5" transform="translate(363,275.1)"><path fill="#3fb59e" d="M0,31.9C-0.1,20.5,11.7,9.9,30.9,4.2C50.1,-1.5,73.7,-1.5,92.9,4.2C112.1,9.9,123.9,20.5,123.8,31.9C123.8,49.5,96.1,63.8,61.9,63.8C27.7,63.8,0,49.5,0,31.9z" stroke="#3fb59e"/><text class="st1"><tspan y="27.9" x="25.5">Create blank </tspan><tspan y="42.9" x="28.5">exam sheet</tspan></text></g><g id="shape6" transform="translate(363,97.1)"><path fill="#3fb59e" d="M0,31.9C-0.1,20.5,11.7,9.9,30.9,4.2C50.1,-1.5,73.7,-1.5,92.9,4.2C112.1,9.9,123.9,20.5,123.8,31.9C123.8,49.5,96.1,63.8,61.9,63.8C27.7,63.8,0,49.5,0,31.9z" stroke="#3fb59e"/><text class="st1"><tspan y="27.9" x="16.5">Get list of exam </tspan><tspan y="42.9" x="42.5">sheets</tspan></text></g><path fill="none" id="shape7" transform="matrix(-1,-0.02,0.02,-1,1045.1,309.7)" d="M0,-0L282.4,-0" stroke="#2c8473" stroke-width="2"/><path fill="none" id="shape8" transform="matrix(-0.84,-0.54,0.54,-0.84,1045.1,309.7)" d="M0,-0L335.2,-0" stroke="#2c8473" stroke-width="2"/><path fill="none" id="shape9" transform="matrix(0.86,0.51,-0.51,0.86,107.9,298.8)" d="M0,-0L297.6,-0" stroke="#2c8473" stroke-width="2"/><path fill="none" id="shape10" transform="matrix(1,0.03,-0.03,1,107.9,298.8)" d="M0,-0L255.3,-0" stroke="#2c8473" stroke-width="2"/><path fill="none" id="shape11" transform="matrix(0.83,-0.55,0.55,0.83,107.9,298.8)" d="M0,-0L306.5,-0" stroke="#2c8473" stroke-width="2"/><g><g><path fill="#a6b9b0" id="shape12" d="M0,0L1122.5,0L1082.5,40.8L39.1,40.8L0,0z" stroke="#a6b9b0"/><g id="shape13" transform="translate(291.86,0)"><path fill="#293f4a" d="M0,0L538.8,0L478.1,56.7L60.7,56.7L0,0z" stroke="#293f4a"/><text class="st2"><tspan y="36.8" x="160.4">Use case diagram</tspan></text></g></g><g transform="translate(0,765.35)"><path fill="#a6b9b0" id="shape14" transform="translate(0,11.34)" d="M38.2,0L1084.4,0L1122.5,17L0,17L38.2,0z" stroke="#a6b9b0"/></g></g><g id="shape15" transform="translate(700.91,334.8)"><path stroke-dasharray="6,4" fill="none" d="M0,0L0,85.2" stroke="#000000"/><path fill="none" stroke-linejoin="round" stroke-linecap="round" d="M6,73.2L0,85.2L-6,73.2" stroke-width="1" stroke="#000000"/><text class="st3"><tspan y="51.9" x="-34.1">&lt;&lt;Include>></tspan></text></g><g id="shape16" transform="translate(639,522.2)"><path fill="#3fb59e" d="M0,31.9C-0.1,20.5,11.7,9.9,30.9,4.2C50.1,-1.5,73.7,-1.5,92.9,4.2C112.1,9.9,123.9,20.5,123.8,31.9C123.8,49.5,96.1,63.8,61.9,63.8C27.7,63.8,0,49.5,0,31.9z" stroke="#3fb59e"/><text class="st1"><tspan y="35.4" x="8.5">Managing account</tspan></text></g><g id="shape17" transform="translate(363,522.2)"><path fill="#3fb59e" d="M0,31.9C-0.1,20.5,11.7,9.9,30.9,4.2C50.1,-1.5,73.7,-1.5,92.9,4.2C112.1,9.9,123.9,20.5,123.8,31.9C123.8,49.5,96.1,63.8,61.9,63.8C27.7,63.8,0,49.5,0,31.9z" stroke="#3fb59e"/><text class="st1"><tspan y="27.9" x="28.5">Create user </tspan><tspan y="42.9" x="39.5">account</tspan></text></g><path fill="none" id="shape18" transform="matrix(0.85,-0.52,0.52,0.85,561.3,671)" d="M0,-0L163.5,-0" stroke="#2c8473" stroke-width="2"/><path fill="none" id="shape19" transform="matrix(-0.85,-0.53,0.53,-0.85,561.3,671)" d="M0,-0L160.7,-0" stroke="#2c8473" stroke-width="2"/><g id="shape20" transform="translate(424.91,160.9)"><path stroke-dasharray="6,4" fill="none" d="M0,0L0,114.2" stroke="#000000"/><path fill="none" stroke-linejoin="round" stroke-linecap="round" d="M6,102.2L0,114.2L-6,102.2" stroke-width="1" stroke="#000000"/><text class="st3"><tspan y="54.6" x="-35.5">&lt;&lt;Extend>></tspan></text></g><g id="shape21" transform="translate(639,554.1)"><path stroke-dasharray="6,4" fill="none" d="M0,0L-152.2,-0" stroke="#000000"/><path fill="none" stroke-linejoin="round" stroke-linecap="round" d="M-140.2,6L-152.2,-0L-140.2,-6" stroke-width="1" stroke="#000000"/><text class="st3"><tspan y="-11.6" x="-102.4">&lt;&lt;Extend>></tspan></text></g><g id="shape22" transform="translate(424.91,420)"><path stroke-dasharray="6,4" fill="none" d="M0,0L0,-81.1" stroke="#000000"/><path fill="none" stroke-linejoin="round" stroke-linecap="round" d="M-6,-69.1L0,-81.1L6,-69.1" stroke-width="1" stroke="#000000"/><text class="st3"><tspan y="-42" x="-29.3">&lt;&lt;Extend>></tspan></text></g><g id="shape23" transform="translate(662.22,152.92)"><path stroke-dasharray="6,4" fill="none" d="M0,0L-175.4,299" stroke="#000000"/><path fill="none" stroke-linejoin="round" stroke-linecap="round" d="M-164.1,291.7L-175.4,299L-174.5,285.6" stroke-width="1" stroke="#000000"/><text class="st3"><tspan y="107.6" x="-96.6">&lt;&lt;Extend>></tspan></text></g><g id="shape24" transform="translate(639,302.9)"><path stroke-dasharray="6,4" fill="none" d="M0,0L-152.2,149" stroke="#000000"/><path fill="none" stroke-linejoin="round" stroke-linecap="round" d="M-139.4,144.9L-152.2,149L-147.8,136.3" stroke-width="1" stroke="#000000"/><text class="st3"><tspan y="74.6" x="-88.4">&lt;&lt;Extend>></tspan></text></g><g transform="translate(71,262)"><path fill="none" id="shape25" transform="translate(-0.04,23.04)" d="M0,0L28,0L0,0z" stroke="#293f4a"/><path fill="none" id="shape26" transform="translate(0,11.83)" d="M14,0L14,29.9L14,0zM0,52.1L14,30.2L0,52.1z" stroke="#293f4a"/><path fill="none" id="shape27" transform="translate(14,41.73)" d="M0,0L14,22.2L0,0z" stroke="#293f4a"/><path fill="#293f4a" id="shape28" transform="translate(7.23,-0.05)" d="M0,7.2C0,3.2,3.1,0,6.8,0C10.6,0,13.6,3.2,13.6,7.2C13.6,11.1,10.6,14.3,6.8,14.3C3.1,14.3,0,11.1,0,7.2z" stroke="#293f4a"/><text class="st3"><tspan y="79.5" x="-9.6">Teacher</tspan></text></g><g transform="translate(1054,275.1)"><path fill="none" id="shape29" transform="translate(-0.04,23.04)" d="M0,0L28,0L0,0z" stroke="#293f4a"/><path fill="none" id="shape30" transform="translate(0,11.83)" d="M14,0L14,29.9L14,0zM0,52.1L14,30.2L0,52.1z" stroke="#293f4a"/><path fill="none" id="shape31" transform="translate(14,41.73)" d="M0,0L14,22.2L0,0z" stroke="#293f4a"/><path fill="#293f4a" id="shape32" transform="translate(7.23,-0.05)" d="M0,7.2C0,3.2,3.1,0,6.8,0C10.6,0,13.6,3.2,13.6,7.2C13.6,11.1,10.6,14.3,6.8,14.3C3.1,14.3,0,11.1,0,7.2z" stroke="#293f4a"/><text class="st3"><tspan y="79.5" x="-16.3">Schoolboy</tspan></text></g><g transform="translate(547.26,682)"><path fill="none" id="shape33" transform="translate(-0.04,23.04)" d="M0,0L28,0L0,0z" stroke="#293f4a"/><path fill="none" id="shape34" transform="translate(0,11.83)" d="M14,0L14,29.9L14,0zM0,52.1L14,30.2L0,52.1z" stroke="#293f4a"/><path fill="none" id="shape35" transform="translate(14,41.73)" d="M0,0L14,22.2L0,0z" stroke="#293f4a"/><path fill="#293f4a" id="shape36" transform="translate(7.23,-0.05)" d="M0,7.2C0,3.2,3.1,0,6.8,0C10.6,0,13.6,3.2,13.6,7.2C13.6,11.1,10.6,14.3,6.8,14.3C3.1,14.3,0,11.1,0,7.2z" stroke="#293f4a"/><text class="st3"><tspan y="79.5" x="-21.9">Headmaster</tspan></text></g></g></svg>